<svg width="700" height="160" viewBox="0 0 700 160" fill="none" xmlns="http://www.w3.org/2000/svg">
<g clip-path="url(#clip0_18994_9405)">
<path fill-rule="evenodd" clip-rule="evenodd" d="M301.328 120C295.532 120 290.242 119.008 285.458 117.025C280.676 115.041 276.51 112.25 272.96 108.65C269.408 105.051 266.654 100.826 264.698 95.978C262.74 91.1294 261.762 85.8034 261.762 80C261.762 74.1966 262.74 68.8706 264.698 64.022C266.654 59.1736 269.408 54.9494 272.96 51.3498C276.51 47.7502 280.676 44.9588 285.458 42.9752C290.242 40.9918 295.492 40 301.22 40C306.942 40 312.196 40.9918 316.98 42.9752C321.762 44.9588 325.928 47.7502 329.48 51.3498C333.03 54.9494 335.746 59.1736 337.632 64.022C339.588 68.8706 340.566 74.1966 340.566 80C340.566 85.73 339.588 91.056 337.632 95.978C335.746 100.826 333.03 105.051 329.48 108.65C325.928 112.25 321.762 115.041 316.98 117.025C312.196 119.008 306.98 120 301.328 120ZM301.22 102.369C304.19 102.369 306.908 101.818 309.372 100.716C311.908 99.6144 314.082 98.0716 315.894 96.0882C317.778 94.0312 319.226 91.6436 320.242 88.9256C321.256 86.2074 321.762 83.2324 321.762 80C321.762 76.7676 321.256 73.7926 320.242 71.0744C319.226 68.3564 317.778 66.0054 315.894 64.022C314.082 61.965 311.908 60.3856 309.372 59.2838C306.908 58.1818 304.19 57.631 301.22 57.631C298.248 57.631 295.492 58.1818 292.958 59.2838C290.494 60.3856 288.322 61.965 286.438 64.022C284.552 66.0054 283.102 68.3564 282.088 71.0744C281.146 73.7926 280.676 76.7676 280.676 80C280.676 83.2324 281.146 86.2442 282.088 89.0358C283.102 91.7538 284.552 94.1048 286.438 96.0882C288.322 98.0716 290.494 99.6144 292.958 100.716C295.492 101.818 298.248 102.369 301.22 102.369ZM446.586 120C441.588 120 437.058 119.412 433 118.237C429.014 116.988 425.464 115.225 422.348 112.948C419.232 110.597 416.444 107.842 413.978 104.683L425.174 91.7906C428.798 96.7126 432.42 100.018 436.044 101.708C439.74 103.398 443.544 104.242 447.456 104.242C449.412 104.242 451.188 103.985 452.782 103.471C454.376 102.957 455.61 102.222 456.478 101.267C457.348 100.239 457.782 98.9898 457.782 97.5208C457.782 96.4188 457.492 95.427 456.912 94.5454C456.404 93.664 455.68 92.8926 454.738 92.2314C453.798 91.5702 452.674 90.9826 451.368 90.4684C450.064 89.8806 448.688 89.403 447.238 89.0358C445.79 88.595 444.304 88.2278 442.782 87.9338C438.58 86.979 434.92 85.8034 431.804 84.4076C428.688 83.012 426.08 81.3224 423.978 79.339C421.95 77.282 420.428 74.9678 419.414 72.3968C418.4 69.752 417.892 66.8136 417.892 63.5812C417.892 60.1286 418.652 56.9696 420.174 54.1048C421.768 51.1662 423.87 48.6686 426.478 46.6116C429.16 44.481 432.238 42.865 435.718 41.763C439.196 40.5876 442.818 40 446.586 40C451.586 40 455.862 40.551 459.414 41.653C463.036 42.6812 466.114 44.1872 468.652 46.1708C471.26 48.1542 473.47 50.5418 475.282 53.3332L463.868 64.4628C462.348 62.5528 460.682 60.9734 458.87 59.7246C457.13 58.4756 455.246 57.5208 453.218 56.8594C451.262 56.1984 449.232 55.8678 447.13 55.8678C444.956 55.8678 443.072 56.1616 441.478 56.7492C439.956 57.2634 438.762 58.035 437.89 59.0632C437.022 60.0184 436.586 61.1938 436.586 62.5894C436.586 63.8384 436.95 64.9036 437.674 65.785C438.398 66.6668 439.376 67.4748 440.61 68.2094C441.84 68.8706 443.254 69.4582 444.848 69.9724C446.442 70.4132 448.108 70.7806 449.848 71.0744C453.834 71.8826 457.42 72.9476 460.608 74.27C463.868 75.5924 466.658 77.2084 468.978 79.1184C471.37 81.0286 473.18 83.3058 474.414 85.9504C475.716 88.5216 476.368 91.5334 476.368 94.9862C476.368 100.349 475.064 104.904 472.456 108.65C469.92 112.323 466.406 115.151 461.912 117.135C457.492 119.045 452.384 120 446.586 120ZM505.694 117.135C510.548 119.045 515.838 120 521.564 120C525.258 120 528.918 119.559 532.54 118.678C536.236 117.723 539.57 116.437 542.54 114.821C545.584 113.205 548.01 111.368 549.822 109.311L540.91 94.9862C539.534 96.4554 537.938 97.7778 536.128 98.953C534.388 100.055 532.468 100.937 530.366 101.598C528.266 102.259 526.056 102.589 523.736 102.589C520.33 102.589 517.216 102.075 514.39 101.047C511.636 100.018 509.28 98.5124 507.324 96.529C505.366 94.5454 503.846 92.1948 502.758 89.4766C501.672 86.685 501.128 83.5996 501.128 80.2204C501.128 76.7676 501.672 73.6456 502.758 70.854C503.846 68.0624 505.33 65.7116 507.214 63.8016C509.17 61.8182 511.416 60.3122 513.954 59.2838C516.562 58.1818 519.316 57.631 522.214 57.631C524.534 57.631 526.706 57.9614 528.736 58.6226C530.764 59.2838 532.612 60.2388 534.278 61.4876C536.02 62.663 537.648 64.0588 539.17 65.675L550.476 52.562C548.3 49.9908 545.694 47.787 542.65 45.9504C539.678 44.0404 536.454 42.6078 532.976 41.653C529.496 40.6978 525.946 40.2204 522.324 40.2204C516.526 40.2204 511.164 41.2122 506.238 43.1956C501.382 45.179 497.144 47.9706 493.52 51.5702C489.97 55.0964 487.18 59.2838 485.15 64.1322C483.122 68.9808 482.108 74.27 482.108 80C482.108 85.877 483.048 91.2764 484.934 96.1984C486.89 101.047 489.642 105.271 493.194 108.871C496.744 112.397 500.912 115.151 505.694 117.135ZM549.53 118.898L579.638 41.763H595.29L625.18 118.898H606.486L601.07 104.132H573.222L567.79 118.898H549.53ZM592.138 79.7796L595.896 90.0276H578.41L582.136 79.8898C582.718 78.0532 583.334 76.2902 583.986 74.6006C584.638 72.8374 585.216 71.111 585.724 69.4214C586.24 67.8546 586.728 66.2874 587.186 64.7204C587.676 66.2346 588.168 67.8016 588.66 69.4214C589.238 71.258 589.818 73.0578 590.398 74.821C590.978 76.584 591.558 78.237 592.138 79.7796ZM631.414 118.898V41.763H647.936L683.536 90.931C683.474 90.4034 683.42 89.8818 683.37 89.3664C683.152 87.1626 682.934 84.9954 682.718 82.865C682.574 80.7346 682.428 78.5674 682.284 76.3636C682.21 74.1598 682.138 71.7722 682.066 69.201V60.8264V41.763H700V118.898H683.262L647.938 70.651C647.974 71.0616 648.01 71.4598 648.044 71.8456C648.334 74.27 648.55 76.437 648.696 78.347C648.914 80.257 649.058 81.9834 649.132 83.5262C649.204 85.069 649.24 86.6116 649.24 88.1542C649.312 89.6234 649.348 91.2764 649.348 93.113V118.898H631.414ZM339.178 41.763L369.612 118.898H385.046L415.698 41.763H396.786L382.656 81.102C381.568 84.0404 380.662 86.575 379.938 88.7052C379.212 90.7622 378.562 92.7824 377.982 94.7658C377.952 94.866 377.922 94.967 377.89 95.069C377.596 93.9566 377.264 92.8638 376.894 91.7906C376.46 90.3214 375.916 88.742 375.264 87.0524C374.684 85.3628 373.96 83.3792 373.09 81.102L358.416 41.763H339.178ZM203.696 117.025C208.622 119.008 214.13 120 220.216 120C225.29 120 229.998 119.155 234.346 117.466C238.694 115.776 242.462 113.425 245.652 110.413C248.838 107.401 251.304 103.838 253.042 99.7246C254.854 95.5372 255.76 90.9458 255.76 85.9504C255.76 85.2892 255.722 84.2974 255.65 82.9752C255.65 81.653 255.616 80.2938 255.542 78.898C255.47 77.5024 255.362 76.4004 255.216 75.5924H219.456V90.248H238.014C237.902 91.907 237.478 93.4866 236.738 94.9862C235.868 96.6758 234.71 98.145 233.26 99.394C231.81 100.643 230.072 101.635 228.042 102.369C226.086 103.104 223.984 103.471 221.738 103.471C218.55 103.471 215.542 102.883 212.716 101.708C209.962 100.459 207.572 98.8062 205.544 96.7492C203.514 94.619 201.92 92.1212 200.76 89.2562C199.601 86.391 199.021 83.3058 199.021 80C199.021 76.6942 199.565 73.6456 200.652 70.854C201.74 67.989 203.262 65.528 205.218 63.471C207.246 61.3408 209.566 59.6878 212.172 58.5124C214.854 57.337 217.788 56.7492 220.978 56.7492C223.44 56.7492 225.76 57.1166 227.934 57.8512C230.108 58.5124 232.136 59.4308 234.022 60.606C235.978 61.7814 237.86 63.2508 239.672 65.0138L250.868 53.0028C248.768 50.505 246.196 48.3012 243.152 46.391C240.108 44.481 236.702 42.9752 232.934 41.8732C229.238 40.7712 225.29 40.2204 221.086 40.2204C215.144 40.2204 209.636 41.2122 204.564 43.1956C199.565 45.179 195.217 47.9706 191.522 51.5702C187.826 55.1698 184.964 59.394 182.935 64.2424C180.978 69.0174 180 74.27 180 80C180 85.73 180.942 91.056 182.826 95.978C184.71 100.826 187.427 105.051 190.978 108.65C194.529 112.25 198.767 115.041 203.696 117.025Z" fill="white"/>
<path fill-rule="evenodd" clip-rule="evenodd" d="M160 87.6298C158.434 103.924 151.888 119.425 141.151 131.962C128.744 146.448 111.571 156.039 92.7168 159.016C73.859 161.993 54.5566 158.165 38.2762 148.206C22.0008 138.253 9.81844 122.828 3.92114 104.712C-1.9762 86.5952 -1.20082 66.9744 6.10808 49.379C13.4195 31.7768 26.7798 17.3612 43.7908 8.71564C60.8044 0.0700712 80.3476 -2.23414 98.9122 2.20924C114.988 6.06228 129.413 14.765 140.278 27.035L120.955 41.038C113.125 32.8876 103.003 27.2446 91.8764 24.8958C79.247 22.2298 66.0826 23.9564 54.5814 29.8026C43.08 35.6426 33.9248 45.2402 28.6486 56.9962C23.3826 68.7518 22.3064 81.955 25.6094 94.4092C28.9096 106.857 36.385 117.8 46.7954 125.418C57.2034 133.035 69.9152 136.863 82.8104 136.266L83.8048 136.21C84.2768 136.179 84.749 136.142 85.221 136.101C85.6066 136.07 85.9864 136.028 86.372 135.986L86.4164 135.98L87.3212 135.872L88.2182 135.752L89.1082 135.618L89.1452 135.612C89.5904 135.538 90.0378 135.464 90.4774 135.377L91.1632 135.25L92.0576 135.066L92.6398 134.939C93.2232 134.806 93.8098 134.666 94.3894 134.514L94.871 134.387L95.6046 134.184C96.0022 134.073 96.3948 133.957 96.7872 133.837L97.7466 133.531L98.169 133.39L98.8078 133.174L99.1928 133.035L99.2302 133.022L99.899 132.781L100.856 132.41L100.908 132.39L101.012 132.349C102.183 131.892 103.333 131.384 104.474 130.845C104.747 130.718 105.013 130.585 105.282 130.451L105.788 130.197C106.146 130.02 106.497 129.836 106.845 129.645C106.86 129.645 106.865 129.639 106.872 129.633C107.215 129.455 107.545 129.271 107.883 129.08C108.137 128.941 108.39 128.795 108.647 128.642L108.955 128.463L109.213 128.306C109.474 128.154 109.728 128.001 109.981 127.842C112.685 126.167 115.257 124.256 117.661 122.123L96.3228 98.1352C99.479 95.3424 101.89 91.7242 103.214 87.6236L160 87.6298ZM103.537 120.593C97.1104 124.275 89.8584 126.408 82.3632 126.757C71.6494 127.252 61.0902 124.072 52.4368 117.743C43.7908 111.415 37.5754 102.318 34.8342 91.9716C34.2278 89.6992 33.803 87.395 33.5544 85.078H57.1188C57.1784 85.3752 57.2432 85.669 57.3152 85.9604C57.3972 86.2988 57.4866 86.6326 57.5836 86.9634L57.7874 87.6172C60.874 97.1894 69.8752 104.121 80.4992 104.121C83.0694 104.121 85.5392 103.715 87.8556 102.966L103.537 120.593ZM102.195 70.4022L126.08 70.326C124.718 63.9148 122.027 57.834 118.14 52.4956C117.859 52.1094 117.573 51.7252 117.278 51.3454C117.049 51.051 116.818 50.759 116.582 50.4708C115.498 49.144 114.355 47.8872 113.145 46.7002C106.778 40.4286 98.7232 36.0742 89.906 34.2144C79.4086 31.9926 68.471 33.4336 58.9082 38.2896C49.3528 43.1392 41.743 51.1182 37.3666 60.881C35.2666 65.5652 33.9694 70.5228 33.4922 75.5566H57.1214C59.3282 64.6894 68.9608 56.5138 80.5016 56.5138C85.4826 56.5138 90.102 58.0372 93.9244 60.6334C96.0766 62.0998 97.9724 63.9022 99.5432 65.9716C100.58 67.3362 101.472 68.8216 102.195 70.4022Z" fill="white"/>
</g>
<defs>
<clipPath id="clip0_18994_9405">
<rect width="700" height="160" fill="white"/>
</clipPath>
</defs>
</svg>
