<svg width="160" height="160" viewBox="0 0 160 160" fill="none" xmlns="http://www.w3.org/2000/svg">
<g clip-path="url(#clip0_18994_9411)">
<path fill-rule="evenodd" clip-rule="evenodd" d="M160 87.6298C158.434 103.924 151.888 119.425 141.151 131.963C128.745 146.448 111.571 156.039 92.7168 159.017C73.859 161.993 54.5566 158.165 38.2762 148.206C22.0009 138.253 9.81844 122.828 3.92114 104.712C-1.97619 86.5952 -1.20082 66.9744 6.10807 49.379C13.4195 31.7769 26.7798 17.3612 43.7908 8.71564C60.8044 0.0700734 80.3476 -2.23414 98.9122 2.20924C114.989 6.06228 129.412 14.765 140.277 27.035L120.956 41.038C113.125 32.8876 103.003 27.2446 91.8764 24.8958C79.247 22.2298 66.0826 23.9564 54.5814 29.8026C43.08 35.6426 33.9248 45.2402 28.6486 56.9962C23.3826 68.7518 22.3065 81.955 25.6094 94.4092C28.9097 106.857 36.385 117.801 46.7954 125.418C57.2034 133.035 69.9152 136.863 82.8105 136.266L83.8048 136.21C84.2768 136.179 84.749 136.142 85.221 136.101C85.6066 136.07 85.9865 136.029 86.3721 135.986L86.4164 135.98L87.3212 135.872L88.2182 135.751L89.1082 135.618L89.1452 135.612C89.5904 135.538 90.0378 135.463 90.4774 135.377L91.1632 135.25L92.0576 135.067L92.6398 134.94C93.2233 134.805 93.8098 134.667 94.3894 134.514L94.871 134.387L95.6046 134.183C96.0022 134.074 96.3948 133.957 96.7872 133.837L97.7466 133.531L98.169 133.391L98.8078 133.174L99.1929 133.035L99.2302 133.022L99.899 132.781L100.856 132.411L100.908 132.39L101.012 132.35C102.183 131.892 103.333 131.385 104.474 130.845C104.747 130.718 105.013 130.585 105.282 130.451L105.788 130.197C106.146 130.02 106.497 129.836 106.845 129.645C106.86 129.645 106.865 129.638 106.873 129.633C107.215 129.455 107.546 129.27 107.884 129.081C108.138 128.941 108.39 128.795 108.646 128.642L108.955 128.463L109.213 128.306C109.474 128.154 109.728 128.001 109.981 127.842C112.685 126.166 115.257 124.256 117.661 122.124L96.3228 98.1352C99.479 95.3424 101.89 91.7242 103.214 87.6236L160 87.6298ZM103.537 120.593C97.1104 124.275 89.8585 126.409 82.3632 126.757C71.6494 127.252 61.0902 124.073 52.4368 117.743C43.7908 111.414 37.5754 102.318 34.8342 91.9716C34.2278 89.6992 33.803 87.395 33.5545 85.078H57.1188C57.1785 85.3752 57.2432 85.669 57.3152 85.9604C57.3972 86.2988 57.4866 86.6326 57.5836 86.9634L57.7874 87.6172C60.874 97.1894 69.8752 104.121 80.4992 104.121C83.0694 104.121 85.5392 103.715 87.8556 102.966L103.537 120.593ZM102.195 70.4022L126.08 70.326C124.718 63.9148 122.027 57.834 118.14 52.4956C117.859 52.1094 117.573 51.7252 117.278 51.3454C117.05 51.051 116.818 50.759 116.581 50.4708C115.498 49.144 114.355 47.8873 113.145 46.7002C106.778 40.4286 98.7232 36.0742 89.906 34.2144C79.4086 31.9926 68.471 33.4336 58.9082 38.2896C49.3529 43.1392 41.743 51.1182 37.3666 60.881C35.2666 65.5652 33.9694 70.5228 33.4922 75.5566H57.1214C59.3282 64.6894 68.9609 56.5138 80.5017 56.5138C85.4826 56.5138 90.102 58.0372 93.9244 60.6334C96.0766 62.0998 97.9724 63.9022 99.5433 65.9716C100.58 67.3362 101.472 68.8216 102.195 70.4022Z" fill="white"/>
</g>
<defs>
<clipPath id="clip0_18994_9411">
<rect width="160" height="160" fill="white"/>
</clipPath>
</defs>
</svg>
